<svg width="1824" height="2713" xmlns="http://www.w3.org/2000/svg" xmlns:xlink="http://www.w3.org/1999/xlink" xml:space="preserve" overflow="hidden"><defs><linearGradient x1="1666.33" y1="1542.72" x2="2703.96" y2="578.46" gradientUnits="userSpaceOnUse" spreadMethod="pad" id="fill0"><stop offset="0" stop-color="#0056E0" stop-opacity="1"/><stop offset="0.0056" stop-color="#0056E0" stop-opacity="1"/><stop offset="1" stop-color="#00E5B8" stop-opacity="1"/></linearGradient></defs><g transform="translate(-1283 -59)"><g><g><g><g><path d="M2581.15 627.025C2453.39 435.57 2312.42 245.105 2254.5 100.455 2245.38 78.0149 2223.65 63.3299 2199.51 63.5499 2175.75 63.7149 2154.29 78.3449 2145.39 100.455 2087.3 245.16 1946.78 435.57 1818.91 627.025 1691.25 818.535 1571.84 1010.92 1571.84 1195.39 1571.84 1541.01 1853.72 1822.45 2199.83 1822.45 2546.01 1822.45 2828.32 1540.96 2828.32 1195.39 2828.27 1010.92 2708.92 818.535 2581.15 627.025ZM2638.35 1132.25C2638.35 1373.26 2441.18 1569.83 2199.78 1569.83 2167.44 1570.55 2140.6 1544.86 2139.83 1512.52 2139.17 1480.07 2164.85 1453.29 2197.2 1452.57L2199.89 1452.57C2377.87 1452.57 2521.09 1309.68 2521.09 1132.25 2520.65 1100.08 2546.45 1073.51 2578.62 1072.96L2578.62 1072.91C2611.12 1072.25 2637.74 1098.1 2638.35 1130.49Z" fill="url(#fill0)" fill-rule="nonzero"/></g></g></g><text fill="#ffffff" fill-opacity="1" font-family="Baloo Bhaijaan,Baloo Bhaijaan_MSFontService,sans-serif" font-style="normal" font-variant="normal" font-weight="700" font-stretch="normal" font-size="527" text-anchor="start" direction="ltr" writing-mode="lr-tb" unicode-bidi="normal" text-decoration="none" transform="matrix(1 0 0 1 1600.92 2261)">drop</text></g></g></svg>